<svg width="123.7" height="116.63" version="1.1" viewBox="0 0 125 120" xmlns="http://www.w3.org/2000/svg"><defs><linearGradient id="paint0_linear" x1="-2.1013" x2="16.77" y1="1.5677" y2="17.519" gradientUnits="userSpaceOnUse"><stop stop-color="#5A9FD4" offset="0"/><stop stop-color="#306998" offset="1"/></linearGradient><linearGradient id="paint1_linear" x1="23.67" x2="16.876" y1="27.711" y2="18.256" gradientUnits="userSpaceOnUse"><stop stop-color="#FFD43B" offset="0"/><stop stop-color="#FFE873" offset="1"/></linearGradient><clipPath id="clip0"><rect width="30" height="34" fill="#fff"/></clipPath></defs><g transform="translate(-34.362 -95.087)"><rect transform="rotate(-45)" x="-84.989" y="134.02" width="92.581" height="92.581" rx="17.496" ry="17.496" fill="#ececec" stroke-width=".31971"/></g><g transform="translate(-34.362 -95.087)"><g transform="matrix(.67792 0 0 .67792 59.003 105.55)" fill="none"><path d="m29.068 7.5825-12.468-7.2386c-0.3978-0.22476-0.8469-0.34287-1.3038-0.34287s-0.906 0.11811-1.3038 0.34287l-12.568 7.2386c-0.4155 0.22301-0.76554 0.55068-1.0155 0.95057-0.24993 0.39988-0.39107 0.85811-0.40946 1.3293v14.463c0.01875 0.473 0.15992 0.933 0.40968 1.3351 0.24976 0.4022 0.59956 0.7326 1.0153 0.959l3.3343 1.8809c0.85737 0.524 1.8451 0.7957 2.8498 0.7838 0.51428 0.0405 1.0311-0.0344 1.5127-0.2193 0.48161-0.1849 0.91586-0.475 1.271-0.8492s0.622-0.8231 0.7814-1.3137 0.2071-1.0107 0.1397-1.5222v-14.249c0-0.1995-0.0997-0.513-0.2992-0.513h-1.5959c-0.19949 0-0.65546 0.3135-0.65546 0.513v14.249c0 1.0972-0.99745 2.1944-2.8499 1.2682l-3.4483-1.9806c-0.05922-0.0358-0.10852-0.0858-0.14337-0.1456-0.03485-0.0597-0.05417-0.1273-0.05614-0.1964v-14.463c0-0.14249 0.15675-0.27073 0.27074-0.34198l12.568-7.2244c0.0633-0.03492 0.1344-0.05324 0.2066-0.05324 0.0723 0 0.1434 0.01832 0.2067 0.05324l12.411 7.2244c0.114 0 0 0.19949 0 0.34198v14.463 0.342l-12.468 7.2244c-0.0531 0.0343-0.1149 0.0526-0.1781 0.0526s-0.1251-0.0183-0.1782-0.0526l-3.1918-1.8952c-0.045-0.0277-0.0968-0.0424-0.1496-0.0424-0.0529 0-0.1047 0.0147-0.1496 0.0424-0.594 0.3622-1.2306 0.6494-1.8952 0.855-0.19949 0-0.51299 0.1995 0.11398 0.5557l4.1893 2.4651c0.3962 0.2364 0.8496 0.3596 1.3109 0.3563 0.4661 0.0052 0.9246-0.118 1.3252-0.3563l12.411-7.2244c0.385-0.2419 0.6987-0.5819 0.909-0.985s0.3097-0.8549 0.288-1.3091v-14.492c0.0221-0.45226-0.0772-0.90221-0.2876-1.3031-0.2105-0.40092-0.5245-0.73818-0.9094-0.97676zm-9.8604 14.449c-3.3201 0-4.0468-0.912-4.2748-2.5649 0-0.171-0.1853-0.3847-0.3563-0.3847h-1.6244c-0.1044 0.017-0.1992 0.071-0.2672 0.1521-0.068 0.081-0.1047 0.1838-0.1033 0.2896 0 2.1089 1.1542 4.6738 6.6402 4.6738 3.9755 0 6.2412-1.5532 6.2412-4.2748s-1.8239-3.4199-5.6997-3.9328c-3.8759-0.513-4.2748-0.7695-4.2748-1.6814 0-0.912 0.3277-1.7527 3.2203-1.7527 2.5649 0 3.5196 0.5557 3.9043 2.2799 0.0191 0.0804 0.0645 0.1522 0.1291 0.2038 0.0645 0.0516 0.1445 0.0802 0.2271 0.0812h1.6245c0.1017-7e-4 0.1991-0.0417 0.2707-0.114 0.0346-0.0352 0.0603-0.0781 0.0752-0.1252 0.0148-0.047 0.0184-0.0969 0.0103-0.1456-0.2422-2.9923-2.2371-4.3887-6.2412-4.3887-3.5766 0-5.6997 1.5104-5.6997 4.0467 0 2.5364 2.1231 3.4911 5.5572 3.8331 4.1038 0.399 4.4173 0.9975 4.4173 1.8097-0.0142 1.3394-1.1399 1.9949-3.776 1.9949z" fill="#83cd29"/></g><g transform="matrix(.51036 0 0 .51036 65.003 172.07)"><path d="m8.751 6.9962c0.48366-0.06444 0.97532-0.03136 1.446 0.09728 0.4707 0.12865 0.9108 0.35027 1.2944 0.65177 0.2486 0.37889 0.4075 0.80953 0.4645 1.2591 0.0569 0.44956 0.0106 0.90621-0.1356 1.3351-0.1089 1.0772-0.6173 2.0744-1.425 2.7952-0.97871 0.6219-2.1324 0.9103-3.2885 0.8222h-2.1923l1.3885-6.9607zm-8.751 13.921h3.6539l0.85866-4.3847h3.0144c1.1599 0.0427 2.3192-0.0991 3.4346-0.4201 0.8765-0.3288 1.6735-0.8393 2.3385-1.4981 1.1592-1.0578 1.9471-2.4607 2.2471-4.001 0.2132-0.78112 0.2399-1.6014 0.0781-2.3947-0.1618-0.79332-0.5077-1.5375-1.0098-2.1727-0.5932-0.59456-1.3097-1.0516-2.0989-1.3389s-1.6319-0.39775-2.4684-0.32363h-6.8328z"/><path d="m18.27-9.7656e-4h3.6539l-0.8587 4.3846h3.1789c1.4701-0.15711 2.9466 0.23315 4.1471 1.0962 0.3989 0.45478 0.6713 1.0064 0.7899 1.5995 0.1186 0.59316 0.0793 1.2071-0.1139 1.7803l-1.6625 7.6731h-3.6539l1.3885-7.3077c0.1002-0.27768 0.1375-0.57418 0.109-0.86804-0.0284-0.29385-0.1218-0.57771-0.2735-0.83101-0.5297-0.37609-1.1842-0.53316-1.8269-0.43847h-2.7587l-1.8452 9.354h-3.6539z"/><path d="m36.849 6.9972c0.4836-0.06444 0.9753-0.03137 1.446 0.09728 0.4706 0.12865 0.9108 0.35026 1.2944 0.65177 0.2449 0.38049 0.4015 0.81096 0.4584 1.2599 0.0569 0.44889 0.0126 0.90482-0.1296 1.3344-0.1237 1.0767-0.6371 2.0709-1.4432 2.7952-0.9782 0.6231-2.1323 0.9116-3.2885 0.8221h-2.1924l1.352-6.9058zm-8.7511 13.921h3.6539l0.8587-4.3847h3.0144c1.1356 0.035 2.2696-0.1068 3.3616-0.4202 0.8992-0.3153 1.7167-0.8271 2.3933-1.4981 1.1837-1.0635 1.9806-2.4901 2.2654-4.0558 0.2236-0.77655 0.2608-1.595 0.1084-2.3886s-0.49-1.5401-0.9853-2.1787c-0.5897-0.59415-1.303-1.0511-2.0892-1.3385-0.7862-0.28733-1.6261-0.39797-2.4599-0.32406h-6.9241z"/></g><g transform="matrix(.097921 0 0 .097921 104.19 98.428)" fill="#00acd7"><path d="m19.32 28.96c-0.5 0-0.623-0.25-0.374-0.623l2.617-3.365c0.25-0.374 0.872-0.623 1.37-0.623h44.497c0.5 0 0.623 0.374 0.374 0.748l-2.12 3.24c-0.25 0.374-0.872 0.748-1.246 0.748l-45.12-0.125zm-18.82 11.467c-0.5 0-0.623-0.25-0.374-0.623l2.617-3.365c0.25-0.374 0.872-0.623 1.37-0.623h56.837c0.5 0 0.748 0.374 0.623 0.748l-0.997 2.99c-0.125 0.5-0.623 0.748-1.122 0.748zm30.163 11.467c-0.5 0-0.623-0.374-0.374-0.748l1.745-3.116c0.25-0.374 0.748-0.748 1.246-0.748h24.928c0.5 0 0.748 0.374 0.748 0.872l-0.25 2.99c0 0.5-0.5 0.872-0.872 0.872l-27.172-0.125zm129.38-25.178-20.943 5.484c-1.87 0.5-1.994 0.623-3.615-1.246-1.87-2.12-3.24-3.5-5.858-4.736-7.852-3.864-15.456-2.742-22.56 1.87-8.476 5.484-12.838 13.586-12.714 23.682 0.125 9.97 6.98 18.198 16.827 19.57 8.476 1.122 15.58-1.87 21.19-8.226 1.122-1.37 2.12-2.867 3.365-4.612h-24.055c-2.617 0-3.24-1.62-2.368-3.74 1.62-3.864 4.612-10.345 6.357-13.586 0.374-0.748 1.246-1.994 3.116-1.994h45.37c-0.25 3.365-0.25 6.73-0.748 10.096-1.37 8.974-4.736 17.2-10.22 24.43-8.974 11.84-20.69 19.195-35.523 21.19-12.215 1.62-23.557-0.748-33.53-8.226-9.234-6.982-14.459-16.206-15.83-27.672-1.62-13.586 2.368-25.8 10.595-36.52 8.85-11.592 20.566-18.946 34.9-21.563 11.716-2.12 22.934-0.748 33.03 6.107 6.606 4.362 11.342 10.345 14.46 17.575 0.748 1.122 0.25 1.745-1.246 2.12z"/><path d="m201.3 95.643c-11.342-0.25-21.688-3.5-30.413-10.97-7.354-6.357-11.966-14.46-13.46-24.056-2.244-14.085 1.62-26.55 10.096-37.642 9.1-11.966 20.067-18.198 34.9-20.815 12.714-2.244 24.68-0.997 35.523 6.357 9.847 6.73 15.954 15.83 17.575 27.795 2.12 16.827-2.742 30.537-14.334 42.254-8.226 8.35-18.322 13.586-29.914 15.954-3.365 0.623-6.73 0.748-9.97 1.122zm29.665-50.355c-0.125-1.62-0.125-2.867-0.374-4.113-2.244-12.34-13.586-19.32-25.427-16.577-11.592 2.617-19.07 9.97-21.812 21.688-2.244 9.722 2.493 19.57 11.467 23.557 6.855 2.99 13.71 2.617 20.317-0.748 9.847-5.1 15.206-13.087 15.83-23.807z"/></g><g transform="matrix(.15248 0 0 -.15248 113.66 197.68)"><g transform="translate(178.06,235.01)"><path d="m0 0-22.669-39.264-22.669 39.264h-75.491l98.16-170.02 98.16 170.02z" fill="#41b883"/></g><g transform="translate(178.06,235.01)"><path d="m0 0-22.669-39.264-22.669 39.264h-36.227l58.896-102.01 58.896 102.01z" fill="#34495e"/></g></g><g transform="matrix(.42856 0 0 .42856 101.35 120.47)"><path d="m16.73 0.0042927c-1.3046 0.0011534-2.6068 0.11087-3.8932 0.328-3.4512 0.61322-4.0787 1.8967-4.0787 4.2783v3.0804h8.1573v1.0411h-11.209c-1.2025-0.02987-2.3768 0.36579-3.3161 1.1172-0.93925 0.75136-1.583 1.8103-1.8179 2.99-0.76317 2.714-0.76317 5.5859 0 8.3 0.5847 2.4243 1.968 4.1357 4.3496 4.1357h2.8522v-3.6937c0.03241-1.3338 0.57577-2.6043 1.5179-3.549 0.94212-0.9448 2.211-1.4917 3.5448-1.5279h8.1573c0.5406-0.0037 1.0751-0.1141 1.5729-0.3249 0.4978-0.2107 0.9491-0.5177 1.3281-0.9032 0.3789-0.3856 0.678-0.8421 0.8801-1.3435s0.3032-1.0378 0.2975-1.5783v-7.7723c-0.0617-1.0811-0.5058-2.105-1.253-2.8887-0.7472-0.78376-1.7487-1.2763-2.8256-1.3896-1.4111-0.21376-2.837-0.31391-4.2641-0.29948zm-4.4209 2.5099c0.3086-0.00567 0.6119 0.08066 0.8713 0.24799 0.2593 0.16733 0.463 0.40807 0.585 0.69157 0.1221 0.28349 0.1569 0.5969 0.1002 0.90028-0.0567 0.30339-0.2025 0.58303-0.4187 0.80329-0.2162 0.22025-0.4931 0.37116-0.7954 0.43349-0.3022 0.06232-0.6162 0.03325-0.902-0.08352-0.2857-0.11677-0.5301-0.31594-0.7022-0.57215s-0.2641-0.55786-0.2641-0.8665c-1e-4 -0.40737 0.1598-0.79849 0.4451-1.0892 0.2854-0.29071 0.6735-0.45778 1.0808-0.46525z" fill="url(#paint0_linear)"/><path d="m26.086 8.7326v3.6223c-0.0144 1.3563-0.5547 2.654-1.5071 3.6197-0.9524 0.9656-2.2425 1.5239-3.5984 1.5571h-8.143c-1.0896 0.0186-2.1284 0.4636-2.8936 1.2395-0.76519 0.7759-1.1958 1.8207-1.1993 2.9104v7.7723c0 2.2247 1.9253 3.5225 4.0787 4.15 2.6548 0.8362 5.5025 0.8362 8.1573 0 2.0536-0.5847 4.0787-1.7827 4.0787-4.15v-3.1089h-8.1573v-1.041h12.25c2.3673 0 3.2515-1.6543 4.0786-4.1357 0.8437-2.7121 0.8437-5.6164 0-8.3285-0.5847-2.3531-1.7113-4.1357-4.0786-4.1357zm-4.5921 19.694c0.3098-0.0056 0.6142 0.0815 0.8742 0.2501 0.2599 0.1686 0.4636 0.411 0.5847 0.6962 0.1212 0.2852 0.1544 0.6001 0.0953 0.9042-0.059 0.3042-0.2077 0.5838-0.4268 0.8029s-0.4986 0.3677-0.8028 0.4268c-0.3042 0.059-0.619 0.0258-0.9042-0.0953-0.2852-0.1212-0.5276-0.3248-0.6963-0.5848-0.1686-0.2599-0.2557-0.5644-0.25-0.8741 0.0037-0.4036 0.1657-0.7896 0.451-1.0749 0.2854-0.2854 0.6714-0.4474 1.0749-0.4511z" fill="url(#paint1_linear)"/></g><g transform="matrix(.4958 0 0 .4958 34.671 142.22)" fill="none"><g clip-path="url(#clip0)" fill="#f26322"><path d="m14.861 0-14.861 8.5065v16.991l4.2422 2.432-0.02996-16.994 10.619-6.0782 10.618 6.0782v16.987l4.2423-2.4246v-17.006z"/><path d="m16.965 27.926-2.1193 1.2215-2.1304-1.2104v-17.002l-4.2385 2.4282 0.00749 16.994 6.3577 3.6424 6.3651-3.6424v-16.994l-4.2421-2.4282z"/></g></g><g transform="matrix(4.2934 0 0 4.2934 125.34 126.65)" fill-rule="evenodd"><g transform="matrix(1.0755,0,0,1.0755,-3.5103,-1.6684)"><path d="m5.8465 1.9131c0.57932 0 1.1068 0.222 1.5022 0.58547-0.1938-0.0052-0.3872 0.11-0.3952 0.3738-0.0163 0.5333 0.6377 0.6469 0.2853 1.7196l-0.2915 0.8873-0.7939-2.3386c-0.0123-0.0362 2e-3 -0.0568 0.0465-0.0568h0.22445c0.011665 0 0.021201-0.00996 0.021201-0.022158v-0.13294c0-0.012193-0.00956-0.022657-0.021201-0.022153-0.42505 0.018587-0.8476 0.018713-1.2676 0-0.0117-5e-4 -0.0212 0.01-0.0212 0.0222v0.13294c0 0.012185 0.00954 0.022158 0.021201 0.022158h0.22568c0.050201 0 0.064256 0.016728 0.076091 0.049087l0.3262 0.8921-0.4907 1.4817-0.8066-2.3758c-0.01-0.0298 0.0021-0.0471 0.0308-0.0471h0.25715c0.011661 0 0.021197-0.00996 0.021197-0.022158v-0.13294c0-0.012193-0.00957-0.022764-0.021197-0.022153-0.2698 0.014331-0.54063 0.017213-0.79291 0.019803 0.39589-0.60984 1.0828-1.0134 1.8639-1.0134l-2.9e-6 -6.2e-6zm1.9532 1.1633c0.17065 0.31441 0.26755 0.67464 0.26755 1.0574 0 0.84005-0.46675 1.5712-1.1549 1.9486l0.6926-1.9617c0.1073-0.3036 0.2069-0.7139 0.1947-1.0443h-4e-6zm-1.2097 3.1504c-0.2325 0.0827-0.4827 0.1278-0.7435 0.1278-0.2247 0-0.4415-0.0335-0.6459-0.0955l0.68415-1.9606 0.70524 1.9284v-1e-7zm-1.6938-0.0854c-0.75101-0.35617-1.2705-1.1213-1.2705-2.0075 0-0.32852 0.071465-0.64038 0.19955-0.92096l1.071 2.9285 3e-6 -3e-6zm0.95023-4.4367c1.3413 0 2.4291 1.0878 2.4291 2.4291s-1.0878 2.4291-2.4291 2.4291-2.4291-1.0878-2.4291-2.4291 1.0878-2.4291 2.4291-2.4291zm0-0.15354c1.4261 0 2.5827 1.1566 2.5827 2.5827s-1.1566 2.5827-2.5827 2.5827-2.5827-1.1566-2.5827-2.5827 1.1566-2.5827 2.5827-2.5827z" fill="#464342"/></g></g><g transform="matrix(.059756 0 0 .059756 97.326 182.67)"><path d="m108.4 0h23v22.8h21.2v-22.8h23v69h-23v-23h-21v23h-23.2m97.6-46h-20.3v-23h63.7v23h-20.4v46h-23m53.5-69h24.1l14.8 24.3 14.8-24.3h24.1v69h-23v-34.2l-16.1 24.8-16.1-24.8v34.2h-22.6m89.2-69h23v46.2h32.6v22.8h-55.6"/><path d="m107.6 471-33-370.4h362.8l-33 370.2-148.7 41.2" fill="#e44d26"/><path d="m256 480.5v-349.5h148.3l-28.3 316" fill="#f16529"/><path d="m142 176.3h114v45.4h-64.2l4.2 46.5h60v45.3h-101.6m2 22.8h45.6l3.2 36.3 50.8 13.6v47.4l-93.2-26" fill="#ebebeb"/><path d="m369.6 176.3h-113.8v45.4h109.6m-4.1 46.5h-105.5v45.4h56l-5.3 59-50.7 13.6v47.2l93-25.8" fill="#fff"/></g><g transform="matrix(.030812 0 0 .030812 75.915 137.75)"><rect width="630" height="630" fill="#f7df1e"/><path d="m423.2 492.19c12.69 20.72 29.2 35.95 58.4 35.95 24.53 0 40.2-12.26 40.2-29.2 0-20.3-16.1-27.49-43.1-39.3l-14.8-6.35c-42.72-18.2-71.1-41-71.1-89.2 0-44.4 33.83-78.2 86.7-78.2 37.64 0 64.7 13.1 84.2 47.4l-46.1 29.6c-10.15-18.2-21.1-25.37-38.1-25.37-17.34 0-28.33 11-28.33 25.37 0 17.76 11 24.95 36.4 35.95l14.8 6.34c50.3 21.57 78.7 43.56 78.7 93 0 53.3-41.87 82.5-98.1 82.5-54.98 0-90.5-26.2-107.88-60.54zm-209.13 5.13c9.3 16.5 17.76 30.45 38.1 30.45 19.45 0 31.72-7.61 31.72-37.2v-201.3h59.2v202.1c0 61.3-35.94 89.2-88.4 89.2-47.4 0-74.85-24.53-88.81-54.075z"/></g></g></svg>
