<?xml version="1.0" standalone="no"?>
<!DOCTYPE svg PUBLIC "-//W3C//DTD SVG 20010904//EN"
 "http://www.w3.org/TR/2001/REC-SVG-20010904/DTD/svg10.dtd">
<svg version="1.0" xmlns="http://www.w3.org/2000/svg"
 width="550.000000pt" height="550.000000pt" viewBox="0 0 550.000000 550.000000"
 preserveAspectRatio="xMidYMid meet">
<metadata>
Created by potrace 1.11, written by Peter Selinger 2001-2013
</metadata>
<g transform="translate(0.000000,550.000000) scale(0.100000,-0.100000)"
fill="#000000" stroke="none">
<path d="M2605 4679 c-77 -45 -246 -142 -375 -217 -129 -74 -246 -143 -260
-152 -14 -10 -27 -17 -30 -17 -3 0 -16 -6 -30 -15 -14 -9 -126 -74 -250 -145
-659 -379 -652 -375 -633 -388 10 -6 158 -92 328 -190 171 -98 363 -209 427
-247 l117 -68 38 21 c21 11 54 30 73 41 163 95 512 297 649 374 l93 54 177
-103 c97 -57 183 -106 191 -110 8 -4 31 -17 50 -28 19 -12 124 -73 232 -136
l197 -114 -2 -491 -2 -490 -165 -95 c-91 -53 -223 -129 -295 -170 -71 -42
-146 -84 -165 -95 -19 -11 -77 -45 -127 -75 l-93 -54 0 -515 c0 -474 3 -539
25 -505 3 6 18 16 33 23 24 13 277 158 637 366 118 69 268 155 353 203 238
136 679 393 687 400 13 13 14 2008 0 2019 -5 4 -26 17 -45 28 -19 10 -176 101
-349 201 -173 100 -339 196 -370 213 -31 17 -67 38 -81 48 -14 9 -38 24 -55
32 -16 8 -206 117 -421 241 -215 125 -397 229 -405 232 -8 3 -77 -32 -154 -76z"/>
</g>
</svg>
