<svg height="30" viewBox="0 0 285 60" 
  xmlns="http://www.w3.org/2000/svg">
  <path d="m26 0-26 14.996 13.345 7.7004 12.655-7.3024 12.652 7.3054 13.348-7.7034-26-14.996" fill="#9e97ff"></path>
  <path d="m38.653 22.701v14.598l-12.652 7.302v15.399l26-15.001v-29.999l-13.348 7.7011" fill="#796eff"></path>
  <path d="m104.32 12v30.484c0 1.6855 0.46222 2.9989 1.3893 3.9389 0.95907 0.93997 2.2546 1.4085 3.885 1.4085 0.73531 0 1.5815-0.09633 2.5406-0.2908 0.95906-0.19448 1.7904-0.43828 2.4938-0.73l-0.67126-3.4522c-0.41559 0.16205-0.86294 0.30952-1.3425 0.43918-0.47955 0.09724-0.89521 0.14441-1.2468 0.14441-0.89514 0-1.5978-0.25887-2.1093-0.77748-0.47956-0.55102-0.72005-1.2955-0.72005-2.2355v-28.929h-4.2187zm175.11 0v15.17c-0.92713-1.5234-2.189-2.8197-3.7874-3.8893-1.5665-1.0696-3.3578-1.6044-5.3719-1.6044-1.6625 0-3.1964 0.35521-4.6031 1.0683-1.3747 0.68067-2.5732 1.6218-3.5962 2.8211-0.9911 1.1993-1.7739 2.609-2.3494 4.2296-0.54348 1.5882-0.81561 3.2739-0.81561 5.0566 0 1.7503 0.28697 3.4189 0.86248 5.0072 0.60741 1.5882 1.4387 2.981 2.4937 4.1802 1.055 1.1993 2.3188 2.1554 3.7895 2.8685 1.4706 0.71308 3.0679 1.0702 4.7942 1.0702 1.8223 0 3.5482-0.45352 5.1787-1.3611 1.6624-0.93997 2.9896-2.2363 3.9806-3.8893v2.1385c0 0.74549 0.30397 1.4108 0.91127 1.9942 0.63938 0.55102 1.3757 0.82694 2.2069 0.82694 0.25564 0 0.51112-0.01725 0.76688-0.04946 0.28774-0.03254 0.65491-0.08159 1.1024-0.14639v-3.6935c-0.89515-0.032542-1.3425-0.55214-1.3424-1.5569v-30.24h-4.2206zm-193.23 0.77748c-2.5576 0-4.8446 0.50268-6.8588 1.5075-2.0141 1.0048-3.7233 2.3332-5.1299 3.9863-1.3747 1.6206-2.4297 3.4689-3.165 5.5433-0.70335 2.042-1.0556 4.0999-1.0556 6.1743 0 2.2041 0.38398 4.3753 1.1512 6.5145 0.79923 2.1068 1.9027 4.0042 3.3094 5.6896 1.4386 1.6531 3.133 2.9966 5.0831 4.0338 1.9502 1.0372 4.0917 1.5569 6.4255 1.5569 1.3108 0 2.6527-0.17959 4.0274-0.53612 1.3747-0.35654 2.6702-0.87429 3.8851-1.555 1.2468-0.68067 2.3503-1.5065 3.3094-2.4789 0.99105-1.0048 1.757-2.1556 2.3005-3.4522l-3.5962-1.9942c-0.47951 1.0696-1.102 1.9937-1.8693 2.7716-0.7353 0.74549-1.535 1.3766-2.3981 1.8952-0.8632 0.48619-1.7746 0.84338-2.7337 1.0702-0.92712 0.2269-1.8386 0.34026-2.7337 0.34026-1.6944 0-3.26-0.37226-4.6987-1.1177-1.4386-0.74547-2.6855-1.7509-3.7405-3.015-1.055-1.2641-1.8863-2.706-2.4938-4.3266-0.57546-1.653-0.8644-3.3878-0.8644-5.2029 0-1.6206 0.24053-3.2251 0.72001-4.8133 0.51153-1.6206 1.2627-3.0625 2.2538-4.3266 0.99105-1.2965 2.2063-2.334 3.645-3.1119 1.4706-0.81032 3.1481-1.2147 5.0344-1.2147 0.86315 0 1.7429 0.09634 2.6381 0.29081 0.89514 0.19448 1.7581 0.51956 2.5893 0.97333 0.8632 0.45378 1.6461 1.0528 2.3494 1.7983 0.7353 0.74549 1.3597 1.6696 1.8712 2.7716l3.405-2.2375c-1.055-2.2365-2.6692-4.0506-4.8431-5.4443-2.174-1.3937-4.7797-2.0911-7.8168-2.0911zm85.431 0.87441v8.4612h-3.405v3.3532h3.405v17.067c0 1.8151 0.55918 3.1586 1.6781 4.0338 1.119 0.84273 2.4461 1.2641 3.9806 1.2641 0.67138 0 1.3106-0.06424 1.9181-0.19387 0.63939-0.09725 1.2153-0.22768 1.7268-0.38973 0.54351-0.19448 1.0224-0.37208 1.4381-0.53414 0.41562-0.19448 0.75107-0.35703 1.0068-0.48667l-1.0068-3.4027c-0.25564 0.16205-0.73478 0.38884-1.4381 0.68055-0.67134 0.2593-1.4226 0.38974-2.2538 0.38974-0.7353 0-1.3766-0.21171-1.9201-0.63306-0.54348-0.42136-0.84533-1.1016-0.9093-2.0416v-15.754h5.6099v-3.3532h-5.6099v-8.4612h-4.2206zm27.016 7.9786c-1.2778-0.06813-2.6005 0.0838-3.967 0.45501-1.822 0.49495-3.3988 1.292-4.7299 2.3918-1.3393 1.0685-2.4121 2.334-3.2176 3.7944-0.77465 1.452-1.2669 3.0283-1.4791 4.7301-0.18125 1.6935-0.0453 3.4019 0.40977 5.1238 0.45508 1.7219 1.1831 3.2845 2.1836 4.6906 1.023 1.3663 2.2288 2.4825 3.6157 3.3473 1.3869 0.86481 2.9274 1.4355 4.6226 1.7132 1.6869 0.24642 3.4407 0.12305 5.2626-0.37192 1.2044-0.32717 2.3214-0.7994 3.3503-1.4145 1.0289-0.61509 1.9204-1.3096 2.6752-2.0851 0.77748-0.81522 1.4081-1.6912 1.8888-2.6273 0.51169-0.94434 0.84734-1.9248 1.0089-2.9418l-3.7816-0.02987c-0.0816 0.69328-0.30171 1.357-0.66345 1.9922-0.33077 0.62678-0.75931 1.197-1.2859 1.7093-0.5266 0.51218-1.1174 0.97469-1.7698 1.3868-0.66061 0.3808-1.3604 0.67109-2.1015 0.87243-1.0499 0.28525-2.1079 0.35469-3.1728 0.20773-1.034-0.15535-2.0169-0.49217-2.9484-1.0109-0.93142-0.51875-1.7599-1.217-2.4879-2.093-0.72798-0.87603-1.2998-1.912-1.7152-3.108l20.055-5.4483c-0.0113-0.16492-0.0525-0.38887-0.12688-0.67065-0.0434-0.29016-0.10988-0.60718-0.20089-0.95157-0.43028-1.628-1.1371-3.1137-2.121-4.4572-0.9613-1.3831-2.1157-2.4956-3.4636-3.3374-1.3561-0.87318-2.8824-1.4473-4.5776-1.7251-0.41608-0.07153-0.83658-0.11972-1.2625-0.14243zm45.238 0c-1.2778-0.06813-2.6005 0.0838-3.967 0.45501-1.822 0.49495-3.3988 1.292-4.73 2.3918-1.3393 1.0685-2.4121 2.334-3.2176 3.7944-0.77469 1.452-1.2669 3.0283-1.4791 4.7301-0.18124 1.6935-0.0453 3.4019 0.40977 5.1238 0.45509 1.7219 1.1831 3.2845 2.1835 4.6906 1.023 1.3663 2.2288 2.4825 3.6157 3.3473 1.3869 0.86481 2.9274 1.4355 4.6226 1.7132 1.6869 0.24642 3.4406 0.12305 5.2626-0.37192 1.2044-0.32717 2.3214-0.7994 3.3503-1.4145 1.0289-0.61509 1.9204-1.3096 2.6752-2.0851 0.77748-0.81522 1.4081-1.6912 1.8888-2.6273 0.51165-0.94434 0.84733-1.9248 1.0088-2.9418l-3.7816-0.02987c-0.0816 0.69328-0.3017 1.357-0.66341 1.9922-0.33078 0.62678-0.75932 1.197-1.2859 1.7093-0.5266 0.51218-1.1175 0.97469-1.7698 1.3868-0.66062 0.3808-1.3604 0.67109-2.1015 0.87243-1.0499 0.28525-2.1079 0.35469-3.1728 0.20773-1.034-0.15535-2.0169-0.49217-2.9484-1.0109-0.93147-0.51875-1.76-1.217-2.4879-2.093-0.72796-0.87603-1.2999-1.912-1.7152-3.108l20.055-5.4483c-0.0113-0.16492-0.0525-0.38887-0.12687-0.67065-0.0434-0.29016-0.10989-0.60718-0.20088-0.95157-0.43028-1.628-1.1371-3.1137-2.121-4.4572-0.9613-1.3831-2.1157-2.4956-3.4635-3.3374-1.3561-0.87318-2.8825-1.4473-4.5777-1.7251-0.41609-0.07153-0.83658-0.11972-1.2625-0.14243zm-88.564 0.0455c-1.3428 0-2.6065 0.1776-3.7894 0.53414-1.1509 0.32413-2.1574 0.82681-3.0206 1.5075-0.86319 0.64825-1.551 1.4741-2.0625 2.4789-0.47955 0.97238-0.72004 2.0911-0.72004 3.3552 0 1.0048 0.16047 1.8476 0.48001 2.5283 0.31982 0.68067 0.83234 1.2646 1.5357 1.7508 0.70332 0.48619 1.598 0.90562 2.685 1.2622 1.087 0.35654 2.3804 0.73078 3.883 1.1198 1.1829 0.29171 2.223 0.56763 3.1182 0.82694 0.89518 0.2593 1.6294 0.55029 2.2049 0.87441 0.57547 0.32415 1.008 0.71342 1.2957 1.1672 0.28773 0.42137 0.43126 0.93912 0.43126 1.555 0 1.3289-0.54235 2.3664-1.6294 3.1119-1.055 0.71308-2.494 1.0702-4.3162 1.0702-1.6304 0-3.1812-0.27591-4.6518-0.82694-1.4706-0.58343-2.9412-1.4433-4.4118-2.5777l-1.8225 2.8685c1.4067 1.1993 3.0842 2.1233 5.0344 2.7716 1.9502 0.61584 3.9334 0.92388 5.9475 0.92388 3.0371 0 5.4509-0.69733 7.2411-2.0911 1.7903-1.3937 2.685-3.2721 2.685-5.6382 0-1.0696-0.20692-1.9787-0.62247-2.7242-0.38361-0.74549-0.99128-1.3936-1.8224-1.9447-0.79927-0.55101-1.8226-1.0196-3.0694-1.4085-1.2149-0.42137-2.6538-0.82771-4.3162-1.2167-1.055-0.2593-1.9664-0.5031-2.7337-0.72999-0.7353-0.22689-1.3429-0.48577-1.8225-0.77748-0.47955-0.29172-0.82992-0.63185-1.0537-1.0208-0.19182-0.38895-0.28887-0.87458-0.28887-1.4581 0-1.4586 0.52752-2.5131 1.5825-3.1614 1.087-0.68067 2.3974-1.0208 3.9319-1.0208 1.3747 0 2.7187 0.2438 4.0294 0.72999 1.3108 0.45378 2.4925 1.1512 3.5475 2.0911l1.9181-2.5777c-1.1189-1.0048-2.4926-1.8155-4.1231-2.4314-1.6304-0.61584-3.3881-0.9219-5.2743-0.9219zm71.821 0.24135c-1.5985 0.12965-3.1008 0.74572-4.5074 1.8477-1.4067 1.0696-2.5418 2.4794-3.405 4.2297v-5.8815h-3.9338v25.378h4.2206v-15.654c0.67138-1.8475 1.8065-3.2894 3.405-4.3266 1.6304-1.0372 3.4999-1.589 5.6099-1.6539v-3.8893c-0.15973-0.03242-0.35192-0.04946-0.57565-0.04946h-0.81366zm-109.5 0.19585v15.217c4e-5 3.533 0.671 6.1899 2.0137 7.9726 1.3427 1.7827 3.3241 2.6746 5.9456 2.6746 2.174 0 4.1721-0.50268 5.9943-1.5075 1.8223-1.0372 3.2929-2.5112 4.4118-4.4235l0.0955 2.9655c0.0302 0.74549 0.32096 1.3766 0.86444 1.8952 0.57546 0.48619 1.2781 0.73 2.1093 0.73 0.25564 0 0.51109-0.01483 0.76685-0.04748 0.28772 0 0.6717-0.03404 1.1512-0.09891v-3.6935c-0.89513-0.03254-1.3424-0.55214-1.3424-1.5569v-20.127h-4.2206v15.897c-0.73531 1.9448-1.8704 3.4849-3.405 4.6193-1.5026 1.102-3.1167 1.6519-4.843 1.6519-3.5486 0-5.3231-2.5927-5.3231-7.7787v-14.39h-4.2187zm80.268 2.7834c0.26734 0.0092 0.53381 0.0305 0.80002 0.06727 1.0566 0.11564 2.0307 0.4221 2.923 0.91794 0.92316 0.48745 1.7501 1.1696 2.4782 2.0455 0.75059 0.83633 1.3241 1.8204 1.723 2.9536l-16.396 4.4551c-0.21373-1.1836-0.2326-2.3186-0.0566-3.4067 0.20654-1.0964 0.57425-2.0858 1.1024-2.9675 0.55085-0.92142 1.2552-1.7007 2.1132-2.3363 0.84975-0.66706 1.8149-1.1466 2.8957-1.4402 0.81064-0.22021 1.616-0.31644 2.4176-0.28884zm45.238 0c0.26733 0.0092 0.53381 0.0305 0.80001 0.06727 1.0566 0.11564 2.0307 0.4221 2.9231 0.91794 0.92316 0.48745 1.7501 1.1696 2.4782 2.0455 0.75059 0.83633 1.3241 1.8204 1.723 2.9536l-16.396 4.4551c-0.21372-1.1836-0.2326-2.3186-0.0566-3.4067 0.20654-1.0964 0.57425-2.0858 1.1024-2.9675 0.55084-0.92142 1.2552-1.7007 2.1132-2.3363 0.84975-0.66706 1.8149-1.1466 2.8957-1.4402 0.81062-0.22021 1.616-0.31644 2.4176-0.28884zm28.313 0.47282c0.79926 0 1.5989 0.16254 2.3981 0.48666 0.83122 0.29172 1.5972 0.71313 2.3005 1.2641 0.73531 0.5186 1.3915 1.1497 1.9669 1.8952 0.57546 0.71308 1.006 1.4766 1.2937 2.2869v7.292c-0.15972 0.7779-0.51022 1.5224-1.0537 2.2355-0.51154 0.68067-1.1359 1.2816-1.8712 1.8002-0.70336 0.51861-1.4693 0.92298-2.3005 1.2147-0.79923 0.29172-1.584 0.43721-2.3513 0.43721-1.2148 0-2.35-0.24185-3.405-0.72802-1.023-0.51861-1.9177-1.1989-2.685-2.0416-0.76728-0.84273-1.3749-1.833-1.8225-2.9675-0.44757-1.1669-0.67122-2.3819-0.67122-3.646 0-1.1993 0.19182-2.3652 0.57561-3.4997 0.38365-1.1669 0.92795-2.1893 1.6313-3.0644 0.73531-0.90755 1.5983-1.6199 2.5894-2.1385 1.023-0.55101 2.1581-0.82694 3.405-0.82694z"></path>
</svg>
